<?xml version="1.0" encoding="utf-8"?>
<!-- Generator: Adobe Illustrator 22.0.0, SVG Export Plug-In . SVG Version: 6.00 Build 0)  -->
<svg version="1.1" id="layer" xmlns="http://www.w3.org/2000/svg" xmlns:xlink="http://www.w3.org/1999/xlink" x="0px" y="0px"
	 viewBox="0 0 652 652" style="enable-background:new 0 0 652 652;" xml:space="preserve">
<style type="text/css">
	.st0{fill:#FFCC34;}
	.st1{fill:#333333;}
	.st2{fill:#FEFEFE;}
	.st3{fill:#FFFFFF;}
</style>
<g>
	<path id="Fill-1" class="st0" d="M156.9,320.6c0,37.4-30.6,68-68,68s-67.5-30.6-67.5-68c0-37,30.1-67.5,67.5-67.5
		S156.9,283.7,156.9,320.6"/>
	<path id="Fill-4" class="st1" d="M143.6,320.6c0,30.1-24.2,54.3-54.3,54.3S35,350.7,35,320.6s24.2-54.3,54.3-54.3
		C119,266.3,143.6,290.5,143.6,320.6"/>
	<path id="Fill-6" class="st2" d="M53.7,339.3c-4.6-4.6-8.7-8.7-12.3-11.9l10-10l5.5,4.6l0.5-0.5c-0.9-3.7-1.4-10.5,5-16.9
		c5-5,11.4-6.4,16.9-3.7l0,0c-0.5-3.7-0.5-6.8,0.5-9.6c0.9-3.2,2.7-6.4,5.5-9.1c7.3-7.3,17.8-7.8,29.2,3.7l22.4,22.4l-11.4,11.4
		L105,299.2c-5.5-5.5-10.5-6.8-14.1-3.2c-2.7,2.7-2.7,6.4-1.4,9.6c0.5,0.9,1.8,2.3,2.7,3.2l22.4,22.4L103,342.5l-21-21
		c-4.6-4.6-9.6-6.4-13.7-2.3c-3.2,3.2-2.3,7.3-1.4,9.6c0.5,1.4,1.4,2.3,2.7,3.7l21.9,21.9l-11.4,11.4L53.7,339.3z"/>
</g>
<g>
	<path id="Fill-8" class="st3" d="M181.5,313.3c0-5.9,0-11.4-0.5-15.5h12.8l0.5,6.8h0.5c2.3-3.2,6.4-7.8,14.6-7.8
		c6.4,0,11.4,3.2,13.2,8.2l0,0c1.8-2.7,4.1-4.6,6.4-5.9c2.7-1.4,5.9-2.3,9.1-2.3c9.6,0,16.4,6.4,16.4,21.4v28.7h-14.6V320
		c0-7.3-2.3-11.4-7.3-11.4c-3.7,0-5.9,2.3-7.3,5.5c-0.5,0.9-0.5,2.7-0.5,3.7v28.7h-14.6v-27.4c0-5.9-2.3-10.5-7.3-10.5
		c-4.1,0-6.4,3.2-7.3,5.5c-0.5,1.4-0.5,2.7-0.5,4.1v28.3h-14.5v-33.3L181.5,313.3L181.5,313.3z"/>
	<path id="Fill-10" class="st3" d="M297.4,316.5c0-3.7-1.8-10-8.7-10c-6.4,0-9.1,5.9-9.6,10H297.4z M279.6,327
		c0.5,6.4,6.8,9.6,13.7,9.6c5,0,9.6-0.9,13.7-2.3l1.8,10.5c-5,2.3-11,3.2-17.8,3.2c-16.4,0-26-9.6-26-25.1c0-12.3,7.8-26,24.6-26
		c16,0,21.9,12.3,21.9,24.6c0,2.7-0.5,5-0.5,5.9L279.6,327z"/>
	<path id="Fill-12" class="st3" d="M337.5,284.6v13.2h11v11.4h-11V327c0,5.9,1.4,8.7,5.9,8.7c2.3,0,3.2,0,4.6-0.5v11.4
		c-1.8,0.9-5.5,1.4-10,1.4c-5,0-9.1-1.8-11.4-4.1c-2.7-3.2-4.1-7.8-4.1-14.6v-20.1h-6.4v-11.4h6.4v-9.1L337.5,284.6z"/>
	<path id="Fill-14" class="st3" d="M383.2,323.8c-8.2,0-14.1,1.8-14.1,7.8c0,4.1,2.7,5.9,5.9,5.9c3.7,0,6.8-2.3,7.8-5.5
		c0-0.9,0.5-1.8,0.5-2.7L383.2,323.8L383.2,323.8z M398.2,335.2c0,4.6,0,9.1,0.9,11.9h-13.7l-0.9-5H384c-3.2,4.1-8.2,5.9-14.1,5.9
		c-10,0-16-7.3-16-15.1c0-12.8,11.4-18.7,28.7-18.7v-0.5c0-2.7-1.4-6.4-9.1-6.4c-5,0-10.5,1.8-13.7,3.7l-2.7-9.6
		c3.2-1.8,10-4.6,19.2-4.6c16.4,0,21.4,9.6,21.4,21L398.2,335.2L398.2,335.2z"/>
	<path id="Fill-16" class="st3" d="M447.1,345.7c-2.7,1.4-7.8,2.3-13.7,2.3c-16,0-26-9.6-26-25.1c0-14.1,10-26,27.8-26
		c4.1,0,8.2,0.9,11.4,1.8l-2.3,11.4c-1.8-0.9-4.6-1.4-8.7-1.4c-8.2,0-13.2,5.9-13.2,13.7c0,9.1,5.9,13.7,13.2,13.7
		c3.7,0,6.4-0.5,8.7-1.8L447.1,345.7z"/>
	<path id="Fill-18" class="st3" d="M455.3,313.8c0-7.3,0-11.9-0.5-16H468l0.5,9.1h0.5c2.3-7.3,8.2-10,13.2-10c1.4,0,2.3,0,3.2,0.5
		v14.1c-1.4,0-2.3-0.5-4.1-0.5c-5.5,0-9.6,2.7-10.5,7.8c0,0.9-0.5,2.3-0.5,3.2v24.6h-15.1C455.3,346.6,455.3,313.8,455.3,313.8z"/>
	<path id="Fill-20" class="st3" d="M493.1,346.6h15.1v-48.8h-15.1V346.6z M500.9,291.4c-5,0-8.2-3.7-8.2-8.2c0-4.6,3.2-8.2,8.7-8.2
		c5,0,8.2,3.7,8.7,8.2C509.6,287.8,505.9,291.4,500.9,291.4L500.9,291.4z"/>
	<path id="Fill-22" class="st3" d="M537.9,284.6v13.2h11v11.4h-11V327c0,5.9,1.4,8.7,5.9,8.7c2.3,0,3.2,0,4.6-0.5v11.4
		c-1.8,0.9-5.5,1.4-10,1.4c-5,0-9.1-1.8-11.4-4.1c-2.7-2.7-4.1-7.8-4.1-14.6v-20.1h-6.4v-11.4h6.4v-9.1L537.9,284.6z"/>
	<path id="Fill-23" class="st3" d="M557.5,346.6h15.1v-48.8h-15.1V346.6z M564.8,291.4c-5,0-8.2-3.7-8.2-8.2c0-4.6,3.2-8.2,8.7-8.2
		c5,0,8.2,3.7,8.7,8.2C573.4,287.8,570.2,291.4,564.8,291.4L564.8,291.4z"/>
	<path id="Fill-24" class="st3" d="M621.4,345.7c-2.7,1.4-7.8,2.3-13.7,2.3c-16,0-26-9.6-26-25.1c0-14.1,10-26,27.8-26
		c4.1,0,8.2,0.9,11.4,1.8l-2.3,11.4c-1.8-0.9-4.6-1.4-8.7-1.4c-8.2,0-13.2,5.9-13.2,13.7c0,9.1,5.9,13.7,13.2,13.7
		c3.7,0,6.4-0.5,8.7-1.8L621.4,345.7z"/>
</g>
</svg>
