<svg id="Слой_1" data-name="Слой 1" xmlns="http://www.w3.org/2000/svg" viewBox="0 0 100 22.58"><defs><style>.cls-1{fill:#ffcc34;}.cls-2{fill:#333;}.cls-3{fill:#fefefe;}.cls-4{fill:#fff;}</style></defs><title>metacritic</title><path id="Fill-1" class="cls-1" d="M22.58,11.3A11.29,11.29,0,1,1,11.25.05,11.35,11.35,0,0,1,22.58,11.3" transform="translate(0 -0.05)"/><path id="Fill-4" class="cls-2" d="M20.37,11.3a9.05,9.05,0,1,1-9-9,9,9,0,0,1,9.05,9.05" transform="translate(0 -0.05)"/><path id="Fill-6" class="cls-3" d="M5.38,14.42c-.76-.77-1.45-1.45-2-2L5,10.77l.92.77L6,11.45a2.87,2.87,0,0,1,.83-2.81A2.41,2.41,0,0,1,9.65,8h0a3.49,3.49,0,0,1,.08-1.6,3.39,3.39,0,0,1,.92-1.52c1.22-1.21,3-1.3,4.87.62l3.73,3.73-1.9,1.9L13.93,7.74C13,6.82,12.18,6.6,11.58,7.2a1.42,1.42,0,0,0-.23,1.6,3.07,3.07,0,0,0,.45.54l3.73,3.73L13.6,15l-3.5-3.5c-.77-.76-1.6-1.06-2.28-.38a1.43,1.43,0,0,0-.24,1.6,2.15,2.15,0,0,0,.45.62l3.65,3.65-1.9,1.9Z" transform="translate(0 -0.05)"/><path id="Fill-8" class="cls-4" d="M26.68,10.09A24.92,24.92,0,0,0,26.6,7.5h2.13l.09,1.14h.08a2.81,2.81,0,0,1,2.43-1.3,2.21,2.21,0,0,1,2.2,1.36h0a3.17,3.17,0,0,1,1.07-1,3.39,3.39,0,0,1,1.52-.38c1.6,0,2.73,1.06,2.73,3.56v4.79H36.42V11.2c0-1.21-.39-1.9-1.22-1.9a1.32,1.32,0,0,0-1.22.92,1.61,1.61,0,0,0-.08.62v4.78H31.47V11.05c0-1-.39-1.75-1.22-1.75a1.36,1.36,0,0,0-1.22.92,2,2,0,0,0-.08.68v4.72H26.53V10.07l.15,0Z" transform="translate(0 -0.05)"/><path id="Fill-10" class="cls-4" d="M46,10.62A1.51,1.51,0,0,0,44.55,9,1.72,1.72,0,0,0,43,10.62Zm-3,1.75c.09,1.07,1.14,1.6,2.29,1.6a7.12,7.12,0,0,0,2.28-.38l.3,1.75a7.14,7.14,0,0,1-3,.53c-2.73,0-4.33-1.6-4.33-4.18a4.09,4.09,0,0,1,4.1-4.34c2.67,0,3.65,2.05,3.65,4.1,0,.45-.08.84-.08,1Z" transform="translate(0 -0.05)"/><path id="Fill-12" class="cls-4" d="M52.68,5.3V7.5h1.84V9.4H52.68v3c0,1,.24,1.45,1,1.45a2,2,0,0,0,.76-.08v1.9a4.33,4.33,0,0,1-1.66.23,2.71,2.71,0,0,1-1.9-.68,3.65,3.65,0,0,1-.69-2.44V9.4H49.12V7.5h1.06V6Z" transform="translate(0 -0.05)"/><path id="Fill-14" class="cls-4" d="M60.3,11.84c-1.37,0-2.35.3-2.35,1.3a.91.91,0,0,0,1,1,1.33,1.33,0,0,0,1.3-.92c0-.15.09-.3.09-.45l0-.91Zm2.5,1.9a7.61,7.61,0,0,0,.15,2H60.67l-.15-.83h-.09a2.83,2.83,0,0,1-2.35,1,2.53,2.53,0,0,1-2.66-2.52c0-2.13,1.9-3.11,4.78-3.11v-.09c0-.45-.23-1.06-1.52-1.06a5,5,0,0,0-2.28.61L56,8.1a6.71,6.71,0,0,1,3.2-.76c2.73,0,3.57,1.6,3.57,3.5l.08,2.9Z" transform="translate(0 -0.05)"/><path id="Fill-16" class="cls-4" d="M71,15.49a5.59,5.59,0,0,1-2.28.38c-2.67,0-4.34-1.6-4.34-4.18A4.28,4.28,0,0,1,69,7.35a7.27,7.27,0,0,1,1.9.3l-.39,1.9A3.36,3.36,0,0,0,69,9.32a2.13,2.13,0,0,0-2.2,2.28A2.1,2.1,0,0,0,69,13.89a2.9,2.9,0,0,0,1.45-.3Z" transform="translate(0 -0.05)"/><path id="Fill-18" class="cls-4" d="M72.32,10.17a21.61,21.61,0,0,0-.09-2.67h2.2L74.52,9h.08a2.26,2.26,0,0,1,2.2-1.67,1,1,0,0,1,.53.09V9.79c-.23,0-.38-.09-.68-.09A1.6,1.6,0,0,0,74.9,11c0,.15-.08.39-.08.54v4.1H72.3S72.32,10.17,72.32,10.17Z" transform="translate(0 -0.05)"/><path id="Fill-20" class="cls-4" d="M78.62,15.64h2.51V7.5H78.62Zm1.3-9.2a1.32,1.32,0,0,1-1.37-1.37A1.33,1.33,0,0,1,80,3.7a1.45,1.45,0,0,1,1.45,1.37,1.51,1.51,0,0,1-1.53,1.37Z" transform="translate(0 -0.05)"/><path id="Fill-22" class="cls-4" d="M86.08,5.3V7.5h1.84V9.4H86.08v3c0,1,.24,1.45,1,1.45a2,2,0,0,0,.76-.08v1.9a4.33,4.33,0,0,1-1.66.23,2.71,2.71,0,0,1-1.9-.68,3.49,3.49,0,0,1-.69-2.44V9.4H82.52V7.5h1.06V6Z" transform="translate(0 -0.05)"/><path id="Fill-23" class="cls-4" d="M89.35,15.64h2.52V7.5H89.35Zm1.22-9.2A1.32,1.32,0,0,1,89.2,5.07,1.33,1.33,0,0,1,90.65,3.7,1.45,1.45,0,0,1,92.1,5.07a1.48,1.48,0,0,1-1.53,1.37Z" transform="translate(0 -0.05)"/><path id="Fill-24" class="cls-4" d="M100,15.49a5.59,5.59,0,0,1-2.28.38c-2.67,0-4.34-1.6-4.34-4.18A4.28,4.28,0,0,1,98,7.35a7.27,7.27,0,0,1,1.9.3l-.39,1.9a3.36,3.36,0,0,0-1.45-.23,2.13,2.13,0,0,0-2.2,2.28,2.1,2.1,0,0,0,2.2,2.29,2.9,2.9,0,0,0,1.45-.3Z" transform="translate(0 -0.05)"/></svg>