<?xml version="1.0" standalone="no"?>
<!DOCTYPE svg PUBLIC "-//W3C//DTD SVG 20010904//EN"
 "http://www.w3.org/TR/2001/REC-SVG-20010904/DTD/svg10.dtd">
<svg version="1.0" xmlns="http://www.w3.org/2000/svg"
 width="260.000000pt" height="260.000000pt" viewBox="0 0 260.000000 260.000000"
 preserveAspectRatio="xMidYMid meet">
<metadata>
Created by potrace 1.14, written by Peter Selinger 2001-2017
</metadata>
<g transform="translate(0.000000,260.000000) scale(0.100000,-0.100000)"
fill="#000000" stroke="none">
<path d="M1000 2405 l0 -65 -70 0 -70 0 0 -70 0 -70 70 0 70 0 0 -210 0 -210
-140 0 -140 0 0 70 0 70 -70 0 -70 0 0 70 0 70 -70 0 -70 0 0 -70 0 -70 -65 0
-65 0 0 -70 0 -70 -70 0 -70 0 0 -70 0 -70 -70 0 -70 0 0 -485 0 -485 70 0 70
0 0 -140 0 -140 70 0 70 0 0 140 0 140 65 0 65 0 0 275 0 275 140 0 140 0 0
-70 0 -70 70 0 70 0 0 -65 0 -65 -70 0 -70 0 0 -70 0 -70 -70 0 -70 0 0 -70 0
-70 70 0 70 0 0 -70 0 -70 140 0 140 0 0 -70 0 -70 70 0 70 0 0 -70 0 -70 70
0 70 0 0 -70 0 -70 140 0 140 0 0 70 0 70 135 0 135 0 0 -70 0 -70 140 0 140
0 0 70 0 70 70 0 70 0 0 70 0 70 70 0 70 0 0 280 0 280 -70 0 -70 0 0 65 0 65
70 0 70 0 0 210 0 210 70 0 70 0 0 350 0 350 -70 0 -70 0 0 70 0 70 -70 0 -70
0 0 65 0 65 -485 0 -485 0 0 -65 0 -65 -70 0 -70 0 0 65 0 65 -70 0 -70 0 0
-65z m-560 -695 l0 -70 -65 0 -65 0 0 70 0 70 65 0 65 0 0 -70z m560 -280 l0
-70 70 0 70 0 0 -70 0 -70 -70 0 -70 0 0 70 0 70 -70 0 -70 0 0 70 0 70 70 0
70 0 0 -70z m-690 -415 l0 -345 -70 0 -70 0 0 345 0 345 70 0 70 0 0 -345z"/>
</g>
</svg>
